<svg width="92" height="68" viewBox="0 0 92 68" fill="none" xmlns="http://www.w3.org/2000/svg">
<g clip-path="url(#clip0_2_178)">
<mask id="mask0_2_178" style="mask-type:luminance" maskUnits="userSpaceOnUse" x="0" y="0" width="92" height="68">
<path d="M92 0H0V68H92V0Z" fill="white"/>
</mask>
<g mask="url(#mask0_2_178)">
<path d="M87.4107 27.6249L41.6241 1.4874C35.4339 -2.01885 30.5243 0.849904 30.5243 7.96865V39.6312C30.5243 39.7374 30.5243 39.8437 30.6311 39.9499H30.7378C31.2714 37.8249 31.6984 35.9124 32.232 33.7874L34.3666 25.0749H39.0627L33.2993 44.1999H30.5243V60.0312C30.5243 67.1499 35.5406 70.0187 41.6241 66.5124L87.4107 40.3749C93.6009 36.8687 93.6009 31.1312 87.4107 27.6249ZM53.4709 44.1999H40.9838V25.0749H53.1508V28.8999H45.5731V32.4062H51.9768V36.2312H45.5731V40.3749H53.3643V44.1999H53.4709Z" fill="white"/>
<path d="M4.58932 25.075H0V44.1999H12.0603V40.375H4.58932V25.075Z" fill="white"/>
<path d="M19.9582 25.075H15.3689V44.1999H19.9582V25.075Z" fill="white"/>
<path d="M29.0302 33.7874L26.7889 25.075H21.8793L27.6427 44.1999H30.4177V39.6312C29.9907 37.6124 29.5638 35.6999 29.0302 33.7874Z" fill="white"/>
</g>
</g>
<defs>
<clipPath id="clip0_2_178">
<rect width="92" height="68" fill="white"/>
</clipPath>
</defs>
</svg>
